<svg width="21" height="20" viewBox="0 0 21 20" fill="none" xmlns="http://www.w3.org/2000/svg">
<path fill-rule="evenodd" clip-rule="evenodd" d="M19.2606 16.0108C19.2606 18.214 17.389 20 15.0803 20H6.71955C4.41081 20 2.5392 18.214 2.5392 16.0108V11.133C2.5392 10.4248 2.24438 9.74559 1.71959 9.2448C0.503707 8.0845 0.661772 6.16205 2.05241 5.19692L8.44114 0.762995C9.90698 -0.254332 11.8928 -0.254332 13.3587 0.762995L19.7474 5.19691C21.138 6.16205 21.2961 8.0845 20.0802 9.2448C19.5554 9.74559 19.2606 10.4248 19.2606 11.133V16.0108ZM10.8999 16C12.0045 16 12.8999 15.1046 12.8999 14C12.8999 12.8954 12.0045 12 10.8999 12C9.79533 12 8.8999 12.8954 8.8999 14C8.8999 15.1046 9.79533 16 10.8999 16Z" fill="#1F75EC"/>
</svg>
